<?xml version="1.0" encoding="utf-8"?>
<!-- Generator: Adobe Illustrator 22.0.1, SVG Export Plug-In . SVG Version: 6.00 Build 0)  -->
<svg version="1.1" id="Layer_1" xmlns="http://www.w3.org/2000/svg" xmlns:xlink="http://www.w3.org/1999/xlink" x="0px" y="0px"
	 viewBox="0 0 46 46" style="enable-background:new 0 0 46 46;" xml:space="preserve">
<g>
	<g>
		<path d="M46,23c0-2.9-2.3-5.3-5.2-5.4c-0.4-1.2-0.8-2.3-1.4-3.4c0.9-1,1.5-2.3,1.5-3.7c0-1.4-0.6-2.8-1.6-3.8
			c-1-1-2.4-1.6-3.8-1.6c-1.4,0-2.7,0.5-3.7,1.5c-1.1-0.6-2.2-1-3.4-1.4C28.3,2.3,25.9,0,23,0c-2.9,0-5.3,2.3-5.4,5.2
			c-1.2,0.4-2.3,0.8-3.4,1.4c-1-0.9-2.3-1.5-3.7-1.5c-1.4,0-2.8,0.6-3.8,1.6c-1,1-1.6,2.4-1.6,3.8c0,1.4,0.5,2.7,1.5,3.7
			c-0.6,1.1-1,2.2-1.4,3.4C2.3,17.7,0,20.1,0,23c0,2.9,2.3,5.3,5.2,5.4c0.4,1.2,0.8,2.3,1.4,3.4c-0.9,1-1.5,2.3-1.5,3.7
			c0,1.4,0.6,2.8,1.6,3.8c1,1,2.4,1.6,3.8,1.6c1.4,0,2.7-0.5,3.7-1.5c1.1,0.6,2.2,1,3.4,1.4c0.1,2.9,2.5,5.2,5.4,5.2
			c2.9,0,5.3-2.3,5.4-5.2c1.2-0.4,2.3-0.8,3.4-1.4c1,0.9,2.3,1.5,3.7,1.5c1.4,0,2.8-0.6,3.8-1.6c1-1,1.6-2.4,1.6-3.8
			c0-1.4-0.5-2.7-1.5-3.7c0.6-1.1,1-2.2,1.4-3.4C43.7,28.3,46,25.9,46,23z M40.3,26.4l-0.1,0c-0.5-0.1-1,0.3-1.1,0.7
			c-0.4,1.5-1,3-1.8,4.4c-0.3,0.4-0.2,1,0.2,1.3c0.1,0.1,0.2,0.1,0.4,0.2c0.6,0.6,1,1.5,1,2.4c0,0.9-0.4,1.8-1,2.4
			c-1.3,1.3-3.5,1.3-4.8,0c-0.1-0.1-0.1-0.2-0.2-0.3c-0.3-0.4-0.9-0.5-1.3-0.2c-1.4,0.8-2.9,1.4-4.4,1.8c-0.5,0.1-0.8,0.6-0.7,1.1
			l0,0.1c0,0.1,0,0.2,0,0.3c0,1.9-1.5,3.4-3.4,3.4c-1.9,0-3.4-1.5-3.4-3.4c0-0.1,0-0.2,0-0.3l0-0.1c0.1-0.5-0.3-1-0.7-1.1
			c-1.6-0.4-3-1-4.4-1.8c-0.2-0.1-0.3-0.1-0.5-0.1c-0.3,0-0.6,0.1-0.8,0.4c-0.1,0.1-0.2,0.2-0.2,0.4c-1.3,1.3-3.5,1.3-4.8,0
			c-0.6-0.6-1-1.5-1-2.4c0-0.9,0.4-1.8,1-2.4c0.1-0.1,0.2-0.1,0.3-0.2c0.4-0.3,0.5-0.9,0.2-1.3c-0.8-1.4-1.4-2.9-1.8-4.4
			c-0.1-0.5-0.6-0.8-1.1-0.7l-0.1,0c-0.1,0-0.2,0-0.3,0C3.5,26.4,2,24.9,2,23c0-1.9,1.5-3.4,3.4-3.4c0.1,0,0.2,0,0.3,0l0.1,0
			c0.5,0.1,1-0.3,1.1-0.7c0.4-1.6,1-3,1.8-4.4c0.3-0.4,0.2-1-0.2-1.3C8.4,13.1,8.3,13,8.2,13c-0.6-0.6-1-1.5-1-2.4
			c0-0.9,0.4-1.8,1-2.4c1.3-1.3,3.5-1.3,4.8,0c0.1,0.1,0.1,0.2,0.2,0.3c0.3,0.4,0.9,0.5,1.3,0.2c1.4-0.8,2.9-1.4,4.4-1.8
			c0.5-0.1,0.8-0.6,0.7-1.1l0-0.1c0-0.1,0-0.2,0-0.3C19.6,3.5,21.1,2,23,2c1.9,0,3.4,1.5,3.4,3.4c0,0.1,0,0.2,0,0.3l0,0.1
			c-0.1,0.5,0.3,1,0.7,1.1c1.6,0.4,3,1,4.4,1.8c0.4,0.3,1,0.2,1.3-0.2C32.9,8.4,33,8.3,33,8.2c1.3-1.3,3.5-1.3,4.8,0
			c0.6,0.6,1,1.5,1,2.4c0,0.9-0.4,1.8-1,2.4c-0.1,0.1-0.2,0.1-0.3,0.2c-0.4,0.3-0.5,0.9-0.2,1.3c0.8,1.4,1.4,2.9,1.8,4.4
			c0.1,0.5,0.6,0.8,1.1,0.7l0.1,0c0.1,0,0.2,0,0.3,0c1.9,0,3.4,1.5,3.4,3.4c0,1.9-1.5,3.4-3.4,3.4C40.5,26.4,40.4,26.4,40.3,26.4z
			 M23,16.1c-3.8,0-6.9,3.1-6.9,6.9c0,3.8,3.1,6.9,6.9,6.9c3.8,0,6.9-3.1,6.9-6.9C29.9,19.2,26.8,16.1,23,16.1z M23,27.9
			c-2.7,0-4.9-2.2-4.9-4.9c0-2.7,2.2-4.9,4.9-4.9c2.7,0,4.9,2.2,4.9,4.9C27.9,25.7,25.7,27.9,23,27.9z M23,10c-7.2,0-13,5.8-13,13
			c0,7.2,5.8,13,13,13c7.2,0,13-5.8,13-13C36,15.8,30.2,10,23,10z M23,34c-6.1,0-11-4.9-11-11c0-6.1,4.9-11,11-11
			c6.1,0,11,4.9,11,11C34,29.1,29.1,34,23,34z"/>
	</g>
</g>
</svg>
