<?xml version="1.0" encoding="utf-8"?>
<!-- Generator: Adobe Illustrator 22.0.1, SVG Export Plug-In . SVG Version: 6.00 Build 0)  -->
<svg version="1.1" id="Layer_1" xmlns="http://www.w3.org/2000/svg" xmlns:xlink="http://www.w3.org/1999/xlink" x="0px" y="0px"
	 viewBox="0 0 47 48" style="enable-background:new 0 0 47 48;" xml:space="preserve">
<g>
	<g>
		<path d="M20.4,23.6V13.3c0,0,0,0,0,0s0,0,0,0V2.4h3c0.6,0,1-0.4,1-1c0-0.5-0.4-1-1-1h-4c-0.6,0-1,0.4-1,1v10.9h-8c0,0,0,0,0,0V1.4
			c0-0.5-0.4-1-1-1h-2c-0.6,0-1,0.4-1,1c0,0.5,0.4,1,1,1h1v21.2L0.1,46.7C-0.1,47,0,47.3,0.2,47.6C0.4,47.9,0.7,48,1,48h28
			c0.3,0,0.6-0.2,0.8-0.4c0.2-0.3,0.2-0.6,0.1-0.9L20.4,23.6z M2.4,46l8-21.9c0-0.1,0.1-0.2,0.1-0.3v-9.5c0,0,0,0,0,0h8v9.5
			c0,0.1,0,0.3,0.1,0.4l9,21.9H2.4z M17.5,30.2h-4c-0.6,0-1,0.4-1,1c0,0.5,0.4,1,1,1h4c0.6,0,1-0.4,1-1C18.5,30.6,18,30.2,17.5,30.2
			z M17.5,34.1h-4c-0.6,0-1,0.4-1,1c0,0.5,0.4,1,1,1h4c0.6,0,1-0.4,1-1C18.5,34.6,18,34.1,17.5,34.1z M17.5,38.1h-4
			c-0.6,0-1,0.4-1,1c0,0.5,0.4,1,1,1h4c0.6,0,1-0.4,1-1C18.5,38.5,18,38.1,17.5,38.1z M42.4,12.4c-2.2,0-4,1.8-4,3.9h-6
			c0-2.2-1.8-3.9-4-3.9c-0.6,0-1,0.4-1,1c0,0.5,0.4,1,1,1c1.1,0,2,0.9,2,1.9h0v25.4c0,2.7,2.2,5,5,5c2.8,0,5-2.2,5-5V17.3
			c0,0,0,0,0,0s0,0,0,0v-0.9c0,0,0,0,0,0c0-1.1,0.9-1.9,2-1.9c0.6,0,1-0.4,1-1C43.4,12.8,42.9,12.4,42.4,12.4z M38.4,41.6
			c0,1.6-1.3,3-3,3c-1.7,0-3-1.3-3-3V30.2c0,0,0,0,0,0h3c0.6,0,1-0.4,1-1c0-0.5-0.4-1-1-1h-3c0,0,0,0,0,0v-2c0,0,0,0,0,0h3
			c0.6,0,1-0.4,1-1c0-0.5-0.4-1-1-1h-3c0,0,0,0,0,0v-2c0,0,0,0,0,0h3c0.6,0,1-0.4,1-1c0-0.5-0.4-1-1-1h-3c0,0,0,0,0,0v-2
			c0,0,0,0,0,0h6V41.6z M43,0c-2.2,0-4,1.8-4,4c0,2.2,1.8,4,4,4c2.2,0,4-1.8,4-4C47,1.8,45.2,0,43,0z M43,6c-1.1,0-2-0.9-2-2
			c0-1.1,0.9-2,2-2c1.1,0,2,0.9,2,2C45,5.1,44.1,6,43,6z M35,11.9c1.1,0,2-0.9,2-2c0-1.1-0.9-2-2-2c-1.1,0-2,0.9-2,2
			C33,11,33.9,11.9,35,11.9z"/>
	</g>
</g>
</svg>
