<?xml version="1.0" encoding="utf-8"?>
<!-- Generator: Adobe Illustrator 22.0.1, SVG Export Plug-In . SVG Version: 6.00 Build 0)  -->
<svg version="1.1" id="Layer_1" xmlns="http://www.w3.org/2000/svg" xmlns:xlink="http://www.w3.org/1999/xlink" x="0px" y="0px"
	 viewBox="0 0 45 48" style="enable-background:new 0 0 45 48;" xml:space="preserve">
<g>
	<g>
		<path d="M39,33V12h2c0,0,0,0,0,0c0.1,0,0.2,0,0.3-0.1c0,0,0.1,0,0.1-0.1c0.1,0,0.1-0.1,0.2-0.1c0,0,0.1-0.1,0.1-0.1
			c0-0.1,0.1-0.1,0.1-0.2c0,0,0-0.1,0.1-0.1c0,0,0-0.1,0-0.1c0,0,0-0.1,0-0.1c0,0,0-0.1,0-0.1c0,0,0-0.1,0-0.1c0-0.1,0-0.1,0-0.2
			c0-0.1,0-0.1-0.1-0.2c0-0.1-0.1-0.1-0.1-0.2c0,0-0.1-0.1-0.1-0.1c-0.1,0-0.1-0.1-0.2-0.1c-0.1,0-0.1-0.1-0.2-0.1c0,0-0.1,0-0.1,0
			L11,2.7V1c0-0.6-0.4-1-1-1C9.4,0,9,0.4,9,1v2.6L2.7,9.8C2.7,9.8,2.6,9.9,2.6,10H1c-0.6,0-1,0.4-1,1c0,0.6,0.4,1,1,1h8v33
			c0,0.6,0.4,1,1,1c0.6,0,1-0.4,1-1V12h26v21c0,0.6,0.4,1,1,1C38.6,34,39,33.6,39,33z M9,10H5.3L9,6.4V10z M11,10V4.8L32.6,10H11z
			 M44,34h-6h-6c-0.6,0-1,0.4-1,1v6c0,0.6,0.4,1,1,1h12c0.6,0,1-0.4,1-1v-6C45,34.4,44.6,34,44,34z M43,40H33v-4h10V40z M2,47
			c0,0.6,0.4,1,1,1h14c0.6,0,1-0.4,1-1c0-0.6-0.4-1-1-1h-7H3C2.4,46,2,46.4,2,47z"/>
	</g>
</g>
</svg>
