<?xml version="1.0" encoding="utf-8"?>
<!-- Generator: Adobe Illustrator 22.0.1, SVG Export Plug-In . SVG Version: 6.00 Build 0)  -->
<svg version="1.1" id="Layer_1" xmlns="http://www.w3.org/2000/svg" xmlns:xlink="http://www.w3.org/1999/xlink" x="0px" y="0px"
	 viewBox="0 0 48 46" style="enable-background:new 0 0 48 46;" xml:space="preserve">
<g>
	<g>
		<path d="M47,22.1H13.7L12.1,7c-0.1-0.5-0.5-0.9-1-0.9H5C4.5,6.2,4.1,6.5,4,7L0,44.9c0,0.3,0.1,0.6,0.3,0.8C0.4,45.9,0.7,46,1,46
			h12.7h1.4H47c0.6,0,1-0.4,1-1V23.1C48,22.5,47.5,22.1,47,22.1z M13.7,44H2.1L5.9,8.1h4.2L14,44H13.7z M45.9,44H16l-2.1-19.9h32V44
			z M14.2,4.4c0.4,0,0.8-0.1,1.2-0.1c2.4,0,4.6,0.8,6.9,1.6c2.5,0.9,5.1,1.9,8.2,1.9c3.4,0,6.7-1.2,10.3-3.6C41.3,4,41.5,3.4,41.2,3
			C41,2.6,40.5,2.3,40,2.5c-1.3,0.4-2.6,0.6-3.8,0.6h0c-2.3,0-4.3-0.7-6.5-1.5C27.5,0.8,25.2,0,22.4,0c-2.8,0-5.6,0.8-8.7,2.6
			c-0.4,0.2-0.6,0.7-0.5,1.2C13.3,4.2,13.8,4.5,14.2,4.4z M22.4,2c2.4,0,4.5,0.7,6.7,1.5c1.9,0.7,3.8,1.4,5.9,1.6
			c-1.5,0.5-3,0.8-4.4,0.8c-2.7,0-5-0.8-7.5-1.7C21.5,3.6,20,3,18.3,2.7C19.7,2.2,21.1,2,22.4,2z M32.8,36h8.1c0.6,0,1-0.4,1-1v-8
			c0-0.5-0.5-1-1-1h-8.1c-0.6,0-1,0.4-1,1v8C31.8,35.6,32.3,36,32.8,36z M33.8,28.1h6v6h-6V28.1z M18.7,36h8.1c0.6,0,1-0.4,1-1v-8
			c0-0.5-0.5-1-1-1h-8.1c-0.6,0-1,0.4-1,1v8C17.7,35.6,18.2,36,18.7,36z M19.7,28.1h6v6h-6V28.1z"/>
	</g>
</g>
</svg>
