<?xml version="1.0" encoding="utf-8"?>
<!-- Generator: Adobe Illustrator 22.0.1, SVG Export Plug-In . SVG Version: 6.00 Build 0)  -->
<svg version="1.1" id="Layer_1" xmlns="http://www.w3.org/2000/svg" xmlns:xlink="http://www.w3.org/1999/xlink" x="0px" y="0px"
	 viewBox="0 0 48 48" style="enable-background:new 0 0 48 48;" xml:space="preserve">
<g>
	<g>
		<path d="M16,34h16c0.6,0,1-0.4,1-1V17c0-0.6-0.4-1-1-1H16c-0.6,0-1,0.4-1,1v16C15,33.6,15.4,34,16,34z M17,18h14v14H17V18z M47,26
			c0.6,0,1-0.4,1-1c0-0.6-0.4-1-1-1h-8v-6h8c0.6,0,1-0.4,1-1c0-0.6-0.4-1-1-1h-8v-5c0-0.6-0.4-1-1-1h-5V1c0-0.6-0.4-1-1-1
			c-0.6,0-1,0.4-1,1v9h-6V1c0-0.6-0.4-1-1-1s-1,0.4-1,1v9h-6V1c0-0.6-0.4-1-1-1s-1,0.4-1,1v9h-5c-0.6,0-1,0.4-1,1v5H1
			c-0.6,0-1,0.4-1,1c0,0.6,0.4,1,1,1h8v6H1c-0.6,0-1,0.4-1,1c0,0.6,0.4,1,1,1h8v6H1c-0.6,0-1,0.4-1,1c0,0.6,0.4,1,1,1h8v5
			c0,0.6,0.4,1,1,1h5v7c0,0.6,0.4,1,1,1s1-0.4,1-1v-7h6v7c0,0.6,0.4,1,1,1s1-0.4,1-1v-7h6v7c0,0.6,0.4,1,1,1c0.6,0,1-0.4,1-1v-7h5
			c0.6,0,1-0.4,1-1v-5h8c0.6,0,1-0.4,1-1c0-0.6-0.4-1-1-1h-8v-6H47z M37,38H11V12h26V38z"/>
	</g>
</g>
</svg>
