<?xml version="1.0" encoding="utf-8"?>
<!-- Generator: Adobe Illustrator 22.0.1, SVG Export Plug-In . SVG Version: 6.00 Build 0)  -->
<svg version="1.1" id="Layer_1" xmlns="http://www.w3.org/2000/svg" xmlns:xlink="http://www.w3.org/1999/xlink" x="0px" y="0px"
	 viewBox="0 0 42.3 46.8" style="enable-background:new 0 0 42.3 46.8;" xml:space="preserve">
<g>
	<g>
		<path d="M40.8,40.9h-3v-8.4c0.1,0,0.3,0,0.4,0c0.4,0,0.8-0.1,1.1-0.2c1-0.3,1.8-1,2.4-2c1-1.9,0.3-4.3-1.6-5.3L15.6,11.8L18,7.3
			c0.6-1.1,0.8-2.4,0.4-3.7c-0.4-1.2-1.2-2.3-2.4-2.9l-0.2-0.1c-1.1-0.6-2.5-0.7-3.7-0.4c-1.2,0.4-2.3,1.2-2.9,2.3l-8.7,16
			C0,19.7-0.2,21,0.2,22.2c0.4,1.2,1.2,2.3,2.4,2.9l0.2,0.1c0.4,0.2,0.7,0.3,1.1,0.4v18.2h2V25.7c1.5-0.3,2.7-1.1,3.4-2.5l2.4-4.5
			l7.3,3.9L9.7,43.9c-0.2,0.5,0,1.1,0.5,1.3c0.1,0.1,0.3,0.1,0.4,0.1c0.4,0,0.7-0.2,0.9-0.6l0.8-1.9h15.6c0.2,0,0.4-0.1,0.6-0.2
			l0.9,2.1c0.2,0.4,0.5,0.6,0.9,0.6c0.1,0,0.3,0,0.4-0.1c0.5-0.2,0.7-0.8,0.5-1.3l-8.7-19.4l13.4,7.2c0,0.1,0,0.1,0,0.2v9h-3
			c-0.6,0-1,0.4-1,1v4c0,0.5,0.4,1,1,1h8c0.6,0,1-0.4,1-1v-4C41.8,41.3,41.4,40.9,40.8,40.9z M7.6,22.3c-0.7,1.3-2.5,1.9-3.9,1.2
			l-0.2-0.1c-0.7-0.4-1.2-1-1.4-1.7c-0.2-0.7-0.1-1.5,0.2-2.2l8.7-16c0.4-0.7,1-1.2,1.7-1.4C13,2,13.2,2,13.5,2
			c0.5,0,0.9,0.1,1.4,0.3l0.2,0.1c0.7,0.4,1.2,1,1.4,1.7c0.2,0.7,0.1,1.5-0.2,2.2l-2.9,5.3c0,0,0,0,0,0l-2.8,5.3c0,0,0,0,0,0
			L7.6,22.3z M14.6,13.5l24.6,13.2c1,0.5,1.3,1.7,0.8,2.7c-0.2,0.5-0.7,0.8-1.2,0.9c-0.5,0.1-1,0.1-1.5-0.2L12.7,17L14.6,13.5z
			 M25,34.9h-9.1l1.8-4c0.1,0,0.2,0,0.2,0h5c0.1,0,0.2,0,0.3-0.1L25,34.9z M18.5,28.9l1.9-4.2l1.9,4.2H18.5z M13.2,40.9l1.8-4h10.9
			l1.8,4H13.2z M39.8,44.9h-6v-2h6V44.9z"/>
	</g>
</g>
</svg>
