<?xml version="1.0" encoding="utf-8"?>
<!-- Generator: Adobe Illustrator 22.0.1, SVG Export Plug-In . SVG Version: 6.00 Build 0)  -->
<svg version="1.1" id="Layer_1" xmlns="http://www.w3.org/2000/svg" xmlns:xlink="http://www.w3.org/1999/xlink" x="0px" y="0px"
	 viewBox="0 0 31.8 46" style="enable-background:new 0 0 31.8 46;" xml:space="preserve">
<g>
	<g>
		<path d="M31.6,14.4C30.8,6.3,24,0,15.9,0C7.1,0,0,7.2,0,16c0,0.1,0,0.1,0,0.2c-0.1,0.2-0.1,0.4,0,0.6L0,18v24.6
			c0,0.4,0.2,0.7,0.5,0.9c1.6,1,5.8,2.6,15.6,2.6c7.2,0,12.3-0.9,15.2-2.6c0.3-0.2,0.5-0.5,0.5-0.9V14.9
			C31.8,14.7,31.7,14.5,31.6,14.4z M15.9,2c6.7,0,12.3,4.8,13.6,11.2c-3-1.1-7.2-1.7-13-1.7c-6.1,0-11.1,0.6-14.1,1.8
			C3.5,6.9,9.1,2,15.9,2z M2.1,15.5c1.4-0.7,5.2-2,14.3-2c6.3,0,10.3,0.7,13.3,2c0,0.2,0,0.3,0,0.5c-1.4,0.8-5.1,2-13.6,2
			c-8.7,0-12.5-1.3-14-2L2.1,15.5z M29.8,42c-2,1-5.9,2-13.7,2C7.5,44,4,42.7,2,42V18.1c3,1.2,8,1.8,14.1,1.8
			c6.1,0,10.8-0.6,13.7-1.8V42z M7.3,23.5C7.1,23.7,7,24,7,24.3v12c0,0.5,0.3,0.9,0.8,1c2.1,0.4,5.6,0.6,9.4,0.6
			c2.4,0,4.5-0.1,6.8-0.3c0.5,0,0.9-0.5,0.9-1v-12c0-0.3-0.1-0.6-0.3-0.7c-0.2-0.2-0.5-0.3-0.8-0.3c-2.2,0.2-4.3,0.3-6.6,0.3
			c-3.6,0-7-0.2-9-0.6C7.8,23.3,7.5,23.3,7.3,23.5z M8.9,25.5c2,0.3,5.1,0.5,8.2,0.5c2,0,3.7-0.1,5.7-0.2v10c-2,0.2-3.7,0.2-5.7,0.2
			c-3.2,0-6.2-0.2-8.2-0.5V25.5z"/>
	</g>
</g>
</svg>
