<?xml version="1.0" encoding="utf-8"?>
<!-- Generator: Adobe Illustrator 22.0.1, SVG Export Plug-In . SVG Version: 6.00 Build 0)  -->
<svg version="1.1" id="Layer_1" xmlns="http://www.w3.org/2000/svg" xmlns:xlink="http://www.w3.org/1999/xlink" x="0px" y="0px"
	 viewBox="0 0 46 43" style="enable-background:new 0 0 46 43;" xml:space="preserve">
<g>
	<g>
		<path d="M45,41h-9.7c0.8-0.4,1.5-1.1,1.9-2h3.3c0.5,0,0.9-0.3,1-0.8l4-18.2c0.1-0.3,0-0.6-0.2-0.8c-0.2-0.2-0.5-0.4-0.8-0.4h-3.1
			c0.7-0.9,1.1-2.1,1.1-3.3c0-1.9-1.1-3.8-2.6-4.7c-0.3-0.6-0.8-1.2-1.4-1.6c0-2.8-2.3-5.1-5.1-5.1c-0.3,0-0.7,0-1,0.1
			c-0.5-2.4-2.5-4.1-5-4.1c-1.7,0-3.3,0.9-4.3,2.3C22.5,2.1,22,2,21.4,2c-1-1.3-2.4-2-4-2c-2.8,0-5.1,2.3-5.1,5.1c0,0.3,0,0.7,0.1,1
			c-2,0.4-3.6,2-4,4.1c-2.3,0.5-4.1,2.7-4.1,5.2c0,1.2,0.4,2.4,1.1,3.3h-3c-0.3,0-0.6,0.1-0.8,0.4c-0.2,0.2-0.3,0.6-0.2,0.8l4,18.2
			c0.1,0.5,0.5,0.8,1,0.8h3.3c0.4,0.9,1,1.6,1.9,2H1c-0.6,0-1,0.5-1,1c0,0.6,0.4,1,1,1h44c0.6,0,1-0.5,1-1C46,41.4,45.6,41,45,41z
			 M33.4,39.4c-1.1,0-2-0.9-2-2c0-1.1,0.9-2,2-2c1.1,0,2,0.9,2,2C35.4,38.5,34.5,39.4,33.4,39.4z M6.3,15.4c0-1.7,1.4-3.3,3-3.3
			c0.5,0,1-0.4,1-1c0-1.7,1.4-3.1,3.1-3.1c0.1,0,0.1,0,0.2,0l0.2,0c0.4,0,0.7-0.1,0.9-0.4c0.2-0.3,0.2-0.7,0-1
			c-0.3-0.5-0.4-1-0.4-1.5c0-1.7,1.4-3.1,3.1-3.1c1.1,0,2.1,0.6,2.7,1.6c0.2,0.3,0.6,0.5,1,0.5l0.2,0C21.8,4,22.4,4.2,23,4.5
			c0.3,0.2,0.6,0.2,0.9,0.1c0.3-0.1,0.5-0.3,0.6-0.6c0.5-1.2,1.6-2,2.9-2c1.7,0,3.1,1.4,3.1,3.1c0,0.1,0,0.1,0,0.2l0,0.2
			c0,0.4,0.1,0.7,0.4,1c0.3,0.2,0.7,0.2,1,0c0.5-0.3,1-0.4,1.5-0.4c1.7,0,3.1,1.4,3.1,3.1c0,0.1,0,0.2,0,0.2l0,0.1
			c0,0.4,0.1,0.8,0.5,1c0.6,0.3,1,0.8,1.3,1.4c0.1,0.2,0.3,0.4,0.5,0.5c1,0.5,1.8,1.8,1.8,3c0,1.8-1.4,3.3-3.1,3.3h-28
			C7.7,18.8,6.3,17.2,6.3,15.4z M3.7,20.8h39.5l-3.6,16.1h-2.2c-0.2-2-1.9-3.6-4-3.6c-2,0-3.7,1.6-4,3.6H17.4c-0.2-2-1.9-3.6-4-3.6
			c-2,0-3.7,1.6-4,3.6H7.2L3.7,20.8z M13.4,35.4c1.1,0,2,0.9,2,2c0,1.1-0.9,2-2,2c-1.1,0-2-0.9-2-2C11.4,36.3,12.3,35.4,13.4,35.4z
			 M17.1,38.9h12.6c0.4,0.9,1,1.6,1.9,2H15.3C16.1,40.5,16.8,39.8,17.1,38.9z"/>
	</g>
</g>
</svg>
