<?xml version="1.0" encoding="utf-8"?>
<!-- Generator: Adobe Illustrator 22.0.1, SVG Export Plug-In . SVG Version: 6.00 Build 0)  -->
<svg version="1.1" id="Layer_1" xmlns="http://www.w3.org/2000/svg" xmlns:xlink="http://www.w3.org/1999/xlink" x="0px" y="0px"
	 viewBox="0 0 42 48" style="enable-background:new 0 0 42 48;" xml:space="preserve">
<g>
	<g>
		<path d="M41,16H14.3c-0.7,0-4.3-0.1-4.3-3c0-2.9,3.6-3,4.3-3H34c0.6,0,1-0.4,1-1c0-0.6-0.4-1-1-1H14.3C10.5,8,8,10,8,13v26.1
			c-1.2-0.7-2-2-2-3.5V9.6C6,7.4,8.2,6,10.3,6H30c0.6,0,1-0.4,1-1c0-0.6-0.4-1-1-1H10.3C6.8,4,4,6.5,4,9.6v25.5c-1.2-0.7-2-2-2-3.5
			V5.6C2,3.4,4.2,2,6.3,2H28c0.6,0,1-0.4,1-1c0-0.6-0.4-1-1-1H6.3C2.8,0,0,2.5,0,5.6v26.1c0,2.6,1.8,5,4.3,5.7c0.6,1.9,2,3.4,3.9,4
			C9.1,45.7,13.1,48,16,48h25c0.6,0,1-0.4,1-1V17C42,16.4,41.6,16,41,16z M40,46H16c-2.2,0-6-2.1-6-6.3V16.8
			c1.1,0.8,2.6,1.2,4.3,1.2H40V46z M15,13c0,0.6,0.4,1,1,1h22c0.6,0,1-0.4,1-1c0-0.6-0.4-1-1-1H16C15.4,12,15,12.4,15,13z"/>
	</g>
</g>
</svg>
