<?xml version="1.0" encoding="utf-8"?>
<!-- Generator: Adobe Illustrator 22.0.1, SVG Export Plug-In . SVG Version: 6.00 Build 0)  -->
<svg version="1.1" id="Layer_1" xmlns="http://www.w3.org/2000/svg" xmlns:xlink="http://www.w3.org/1999/xlink" x="0px" y="0px"
	 viewBox="0 0 49 46" style="enable-background:new 0 0 49 46;" xml:space="preserve">
<g>
	<g>
		<path d="M25.3,18.1L25.3,18.1c0.4,0,0.8,0,1.2-0.1c1.2,1.9,2.6,6.7,2.6,8.5c0,0.5,0.5,1,1,1c0.6,0,1-0.4,1-1c0-1.7,3-4.4,5.1-5.8
			c0.3,0,0.5,0,0.8,0c3,0,5.6-1,7.4-3c1.9-2,2.8-5,2.5-7.9c-0.1-0.5-0.5-0.9-1.1-0.9c-3.7,0.2-6.9,1.5-8.8,3.7
			c-1.5,1.8-2.3,4-2.1,6.6c-0.9,0.7-2.9,2.2-4.3,4c-0.6-2.4-1.6-5-2.5-6.4c0.3-4.2-0.8-8-3.3-10.9c-3.1-3.5-8-5.6-14-5.9
			c-0.5,0-1,0.4-1.1,0.9c-0.5,4.6,1,9.3,4,12.5C16.5,16.5,20.5,18.1,25.3,18.1z M38.5,13.9c1.4-1.6,3.6-2.6,6.4-3c0,2-0.8,4-2,5.4
			c-1.4,1.6-3.5,2.4-6,2.4C36.8,16.9,37.4,15.2,38.5,13.9z M23.2,7.2c2.1,2.4,3.1,5.4,2.9,8.9c-0.3,0-0.5,0-0.8,0h0
			c-4.2,0-7.7-1.4-10.1-4.1c-2.4-2.6-3.6-6.2-3.5-10C16.6,2.5,20.7,4.3,23.2,7.2z M44.6,30.1c-1.2,0-2.5,1.1-4.2,2.4
			c-1.4,1.2-3.2,2.6-4.5,2.8c0-0.8-0.3-1.4-0.8-2c-1.7-1.9-5.5-1.8-8-1.7c-0.4,0-0.7,0-1,0c-0.5,0-1.2-0.4-2-1
			c-2.1-1.3-5.2-3.3-11.4-3.4c-0.2,0-0.4,0.1-0.5,0.2v-2.5c0-0.6-0.5-1-1-1H1c-0.6,0-1,0.4-1,1v17.9c0,0.5,0.5,1,1,1h10.1
			c0.6,0,1-0.4,1-1v-2.3c0,0,0.1,0,0.1,0c0.9,0,3,1,5,1.9C20.7,44,25,46,28.4,46C33.8,46,49,38.8,49,34.5
			C49,31.7,47.4,30.1,44.6,30.1z M10.1,41.7H2V25.8h8.1V41.7z M28.4,44c-3,0-7.1-1.9-10.3-3.4c-2.5-1.2-4.6-2.1-5.9-2.1
			c0,0-0.1,0-0.1,0V29c0.1,0.1,0.3,0.2,0.5,0.2C18.3,29.3,21,31,23,32.2c1.1,0.7,2,1.3,3.1,1.3c0.3,0,0.7,0,1.1,0
			c1.8-0.1,5.3-0.2,6.4,1c0.2,0.2,0.4,0.5,0.3,1.2H20.2c-0.6,0-1,0.4-1,1c0,0.6,0.5,1,1,1h14.1c0.4,0,0.7-0.2,0.9-0.5
			c2.2,0.2,4.5-1.6,6.5-3.2c1-0.8,2.4-1.9,2.9-1.9c1.7,0,2.4,0.8,2.4,2.5C47,36.6,34.4,44,28.4,44z"/>
	</g>
</g>
</svg>
