<?xml version="1.0" encoding="utf-8"?>
<!-- Generator: Adobe Illustrator 22.0.1, SVG Export Plug-In . SVG Version: 6.00 Build 0)  -->
<svg version="1.1" id="Layer_1" xmlns="http://www.w3.org/2000/svg" xmlns:xlink="http://www.w3.org/1999/xlink" x="0px" y="0px"
	 viewBox="0 0 26 47" style="enable-background:new 0 0 26 47;" xml:space="preserve">
<g>
	<g>
		<path d="M25,10.6h-3V3c0-1.7-1.3-3-3-3c-1.7,0-3,1.3-3,3v7.6h-6V3c0-1.7-1.3-3-3-3C5.3,0,4,1.3,4,3v7.6H1c-0.6,0-1,0.4-1,1v4
			c0,0.6,0.4,1,1,1h1V23c0,5.1,4.5,9.7,9.5,9.7h0.9c-0.2,2.3-1.6,3.1-3.5,4.3c-2.5,1.5-5.5,3.4-5.5,9c0,0.6,0.4,1,1,1
			c0.6,0,1-0.4,1-1c0-4.5,2.2-5.9,4.6-7.3c2-1.2,4.2-2.6,4.5-6h1c4.7,0,8.6-4.3,8.6-9.7v-6.4h1c0.6,0,1-0.4,1-1v-4
			C26,11,25.6,10.6,25,10.6z M18,3c0-0.6,0.4-1,1-1c0.6,0,1,0.5,1,1v7.6h-2V3z M6,3c0-0.6,0.4-1,1-1c0.6,0,1,0.5,1,1v7.6H6V3z
			 M22,23c0,3.7-2.5,7.7-6.6,7.7h-3.9C7.6,30.6,4,26.9,4,23v-6.4h18V23z M24,14.6H2v-2h22V14.6z"/>
	</g>
</g>
</svg>
