<?xml version="1.0" encoding="utf-8"?>
<!-- Generator: Adobe Illustrator 22.0.1, SVG Export Plug-In . SVG Version: 6.00 Build 0)  -->
<svg version="1.1" id="Layer_1" xmlns="http://www.w3.org/2000/svg" xmlns:xlink="http://www.w3.org/1999/xlink" x="0px" y="0px"
	 viewBox="0 0 47 47" style="enable-background:new 0 0 47 47;" xml:space="preserve">
	<g>
		<g>
		<path d="M45,43.1H2c-1.1,0-2,0.9-2,2c0,1.1,0.9,2,2,2H45c1.1,0,2-0.9,2-2C47,44,46.1,43.1,45,43.1z M6.1,38.6h5.5c1.1,0,2-0.9,2-2
			c0-1.1-0.9-2-2-2H6.1c-1.1,0-2,0.9-2,2C4.2,37.8,5,38.6,6.1,38.6z M6.1,30h5.5c1.1,0,2-0.9,2-2c0-1.1-0.9-2-2-2H6.1
			c-1.1,0-2,0.9-2,2C4.2,29.1,5,30,6.1,30z M6.1,21.3h5.5c1.1,0,2-0.9,2-2c0-1.1-0.9-2-2-2H6.1c-1.1,0-2,0.9-2,2
			C4.2,20.4,5,21.3,6.1,21.3z M6.1,12.6h5.5c1.1,0,2-0.9,2-2c0-1.1-0.9-2-2-2H6.1c-1.1,0-2,0.9-2,2C4.2,11.7,5,12.6,6.1,12.6z
			 M6.1,3.9h5.5c1.1,0,2-0.9,2-2c0-1.1-0.9-2-2-2H6.1c-1.1,0-2,0.9-2,2C4.2,3,5,3.9,6.1,3.9z M20.8,38.6h5.5c1.1,0,2-0.9,2-2
			c0-1.1-0.9-2-2-2h-5.5c-1.1,0-2,0.9-2,2C18.8,37.8,19.7,38.6,20.8,38.6z M20.8,30h5.5c1.1,0,2-0.9,2-2c0-1.1-0.9-2-2-2h-5.5
			c-1.1,0-2,0.9-2,2C18.8,29.1,19.7,30,20.8,30z M20.8,21.3h5.5c1.1,0,2-0.9,2-2c0-1.1-0.9-2-2-2h-5.5c-1.1,0-2,0.9-2,2
			C18.8,20.4,19.7,21.3,20.8,21.3z M35.4,38.6h5.5c1.1,0,2-0.9,2-2c0-1.1-0.9-2-2-2h-5.5c-1.1,0-2,0.9-2,2
			C33.4,37.8,34.3,38.6,35.4,38.6z M35.4,30h5.5c1.1,0,2-0.9,2-2c0-1.1-0.9-2-2-2h-5.5c-1.1,0-2,0.9-2,2C33.4,29.1,34.3,30,35.4,30z
			"/>
		</g>
	</g>
</svg>
