<?xml version="1.0" encoding="utf-8"?>
<!-- Generator: Adobe Illustrator 22.0.1, SVG Export Plug-In . SVG Version: 6.00 Build 0)  -->
<svg version="1.1" id="Layer_1" xmlns="http://www.w3.org/2000/svg" xmlns:xlink="http://www.w3.org/1999/xlink" x="0px" y="0px"
	 viewBox="0 0 46.8 46.7" style="enable-background:new 0 0 46.8 46.7;" xml:space="preserve">
<g>
	<g>
		<path d="M44.8,5.9c-1.1,0-1.9,0.9-1.9,1.9v36.9c0,1.1,0.9,1.9,1.9,1.9c1.1,0,1.9-0.9,1.9-1.9V7.9C46.8,6.8,45.9,5.9,44.8,5.9z
			 M34.1,16.3c-1.1,0-1.9,0.9-1.9,1.9v26.6c0,1.1,0.9,1.9,1.9,1.9c1.1,0,1.9-0.9,1.9-1.9V18.2C36,17.2,35.2,16.3,34.1,16.3z
			 M23.4,23.3c-1.1,0-1.9,0.9-1.9,1.9v19.6c0,1.1,0.9,1.9,1.9,1.9c1.1,0,1.9-0.9,1.9-1.9V25.2C25.3,24.1,24.5,23.3,23.4,23.3z
			 M12.7,30.6c-1.1,0-1.9,0.9-1.9,1.9v12.3c0,1.1,0.9,1.9,1.9,1.9c1.1,0,1.9-0.9,1.9-1.9V32.5C14.6,31.4,13.7,30.6,12.7,30.6z
			 M1.9,37.7c-1.1,0-1.9,0.9-1.9,1.9v5.2c0,1.1,0.9,1.9,1.9,1.9c1.1,0,1.9-0.9,1.9-1.9v-5.2C3.9,38.6,3,37.7,1.9,37.7z M37.6,4
			l-8.5-3.8c-1-0.4-2.1,0-2.6,1c-0.4,1,0,2.1,1,2.6l3.5,1.6C7.7,11.7,0.4,30.3,0.1,31.1c-0.4,1,0.1,2.1,1.1,2.5
			c0.2,0.1,0.5,0.1,0.7,0.1c0.8,0,1.5-0.5,1.8-1.3c0.1-0.3,6.7-17,27.3-23.1l-1.8,2.1c-0.7,0.8-0.6,2,0.2,2.7
			c0.4,0.3,0.8,0.5,1.3,0.5c0.5,0,1.1-0.2,1.5-0.7l6.2-7c0.4-0.5,0.6-1.1,0.4-1.7C38.6,4.7,38.2,4.2,37.6,4z"/>
	</g>
</g>
</svg>
