<?xml version="1.0" encoding="utf-8"?>
<!-- Generator: Adobe Illustrator 22.0.1, SVG Export Plug-In . SVG Version: 6.00 Build 0)  -->
<svg version="1.1" id="Layer_1" xmlns="http://www.w3.org/2000/svg" xmlns:xlink="http://www.w3.org/1999/xlink" x="0px" y="0px"
	 viewBox="0 0 47 47" style="enable-background:new 0 0 47 47;" xml:space="preserve">
<g>
	<g>
		<path d="M2,5.7c-1.1,0-2,0.9-2,2V45c0,1.1,0.9,2,2,2c1.1,0,2-0.9,2-2V7.6C3.9,6.5,3,5.7,2,5.7z M12.7,16.2c-1.1,0-2,0.9-2,2V45
			c0,1.1,0.9,2,2,2c1.1,0,2-0.9,2-2V18.1C14.7,17,13.8,16.2,12.7,16.2z M23.5,23.3c-1.1,0-2,0.9-2,2V45c0,1.1,0.9,2,2,2
			c1.1,0,2-0.9,2-2V25.2C25.4,24.1,24.6,23.3,23.5,23.3z M34.3,30.6c-1.1,0-2,0.9-2,2V45c0,1.1,0.9,2,2,2c1.1,0,2-0.9,2-2V32.6
			C36.2,31.5,35.3,30.6,34.3,30.6z M45,37.9c-1.1,0-2,0.9-2,2V45c0,1.1,0.9,2,2,2c1.1,0,2-0.9,2-2v-5.2C47,38.7,46.1,37.9,45,37.9z
			 M35.5,23.1c-1-0.4-2.1,0-2.6,1c-0.4,1,0,2.1,1,2.6l9.3,4c0.2,0.1,0.5,0.2,0.8,0.2c0.3,0,0.7-0.1,1-0.3c0.5-0.3,0.9-0.9,0.9-1.5
			l1-10.1c0.1-1.1-0.7-2-1.8-2.1c-1.1-0.1-2,0.7-2.1,1.8l-0.4,4.6C28,1,6.3,0,5.4,0c0,0,0,0-0.1,0c-1.1,0-1.9,0.8-2,1.9
			c0,1.1,0.8,2,1.9,2c0.2,0,20,0.9,33.5,20.6L35.5,23.1z"/>
	</g>
</g>
</svg>
